<?xml version="1.0" standalone="no"?>
<!DOCTYPE svg PUBLIC "-//W3C//DTD SVG 20010904//EN"
 "http://www.w3.org/TR/2001/REC-SVG-20010904/DTD/svg10.dtd">
<svg version="1.0" xmlns="http://www.w3.org/2000/svg"
 width="972.000000pt" height="1002.000000pt" viewBox="0 0 972.000000 1002.000000"
 preserveAspectRatio="xMidYMid meet">

<g transform="translate(0.000000,1002.000000) scale(0.100000,-0.100000)"
fill="#000000" stroke="none">
<path d="M5935 8900 c-485 -701 -771 -1106 -776 -1098 -4 7 -10 36 -14 64 -6
48 -12 56 -98 141 l-92 91 -77 6 c-43 4 -117 4 -166 0 l-89 -7 -44 -265 -44
-266 -110 -17 c-84 -14 -111 -15 -117 -6 -4 7 -39 73 -77 147 -63 122 -79 144
-160 224 l-89 89 -144 -46 c-78 -26 -149 -51 -157 -56 -12 -7 -7 -52 28 -277
22 -147 40 -268 39 -269 -2 -1 -63 -33 -137 -70 l-133 -68 -194 194 -193 193
-58 -39 c-74 -49 -213 -154 -213 -161 0 -4 54 -113 120 -243 66 -130 120 -239
120 -242 0 -3 -48 -54 -106 -112 l-106 -106 -247 123 -246 124 -29 -37 c-15
-20 -60 -80 -99 -134 l-70 -99 195 -196 195 -197 -66 -127 c-37 -70 -70 -130
-72 -133 -3 -2 -126 13 -274 35 -147 22 -269 40 -271 40 -5 0 -62 -159 -84
-238 l-24 -83 85 -85 c78 -79 95 -91 234 -161 83 -41 151 -77 153 -78 5 -5
-28 -208 -34 -215 -3 -3 -126 -25 -272 -50 l-267 -45 -3 -168 -2 -168 87 -89
88 -90 188 -28 c103 -16 190 -32 193 -35 4 -3 12 -35 19 -72 l12 -65 -91 -49
c-50 -27 -160 -84 -244 -127 l-153 -79 6 -33 c3 -18 24 -88 46 -155 l40 -122
92 -93 c64 -64 99 -92 115 -92 13 0 106 13 205 30 100 16 192 32 205 34 18 3
27 -5 43 -37 l21 -40 -193 -193 -193 -193 39 -58 c73 -110 153 -208 248 -302
l95 -94 34 20 c18 12 124 67 236 123 193 97 204 101 222 85 18 -17 15 -25
-103 -261 l-122 -244 80 -81 c74 -74 290 -247 350 -279 25 -14 29 -11 155 115
l129 128 -485 -1194 c-266 -657 -487 -1204 -490 -1217 -6 -22 -5 -23 61 -20
l68 3 621 896 c342 493 628 906 636 917 l15 21 99 -29 c55 -17 101 -28 103
-26 3 2 57 107 121 233 132 257 111 237 227 213 l52 -11 28 -177 27 -177 91
-93 92 -92 166 0 167 0 10 63 c6 34 25 150 43 258 l32 196 101 12 c55 6 109
13 119 14 13 1 34 -30 85 -125 57 -108 81 -140 160 -222 l92 -95 93 29 c182
57 217 71 217 88 0 10 -16 125 -36 257 -30 196 -35 240 -23 244 7 2 73 34 145
71 l132 67 185 -178 185 -179 103 74 c57 41 118 86 134 99 l30 25 -115 225
-115 225 117 116 117 116 225 -112 c263 -131 222 -136 347 38 l82 116 -178
178 -179 179 74 146 c67 129 78 145 100 145 14 0 126 -16 250 -34 124 -19 228
-31 232 -28 10 10 98 278 98 299 0 10 -42 60 -92 110 -83 82 -106 98 -217 153
-119 59 -123 62 -118 89 3 15 11 68 18 117 6 49 13 91 15 93 2 2 114 23 249
46 135 23 247 44 250 47 3 3 6 79 6 168 l0 163 -89 90 -90 90 -173 26 -173 27
-14 73 c-7 41 -11 80 -8 86 2 7 104 64 225 126 164 85 221 119 221 132 0 10
-21 82 -46 160 l-46 142 -92 92 -91 93 -210 -35 c-115 -19 -212 -35 -216 -35
-3 0 -15 21 -28 47 l-22 46 180 181 c100 100 181 185 181 190 0 25 -169 245
-262 341 l-107 110 -231 -119 -231 -118 -24 22 -24 22 117 234 117 234 -90 91
c-88 88 -262 228 -331 265 l-34 19 -188 -187 -187 -187 -37 21 c-25 14 -38 29
-38 42 0 12 14 112 31 224 l32 203 -28 29 -28 29 163 468 c89 257 259 742 376
1078 l214 610 -37 37 c-20 21 -40 38 -44 38 -3 0 -352 -500 -774 -1110z"/>
</g>
</svg>
